<?xml version="1.0" encoding="iso-8859-1"?>
<!-- Generator: Adobe Illustrator 18.0.0, SVG Export Plug-In . SVG Version: 6.00 Build 0)  -->
<!DOCTYPE svg PUBLIC "-//W3C//DTD SVG 1.1//EN" "http://www.w3.org/Graphics/SVG/1.1/DTD/svg11.dtd">
<svg version="1.1" id="Capa_1" xmlns="http://www.w3.org/2000/svg" xmlns:xlink="http://www.w3.org/1999/xlink" x="0px" y="0px"
	 viewBox="0 0 240.959 240.959" style="enable-background:new 0 0 240.959 240.959;" xml:space="preserve">
<path d="M120.479,47.979c-64.292,0-114.873,65.17-116.994,67.943L0,120.479l3.485,4.557c2.121,2.773,52.702,67.943,116.994,67.943
	c64.291,0,114.873-65.17,116.994-67.943l3.485-4.557l-3.485-4.557C235.352,113.149,184.77,47.979,120.479,47.979z M120.479,177.98
	c-47.639,0-88.921-43.18-101.304-57.506c12.365-14.336,53.564-57.494,101.304-57.494c47.635,0,88.913,43.171,101.299,57.5
	C209.387,134.814,168.11,177.98,120.479,177.98z M120.479,67.979c-28.948,0-52.5,23.552-52.5,52.5s23.552,52.5,52.5,52.5
	s52.5-23.552,52.5-52.5S149.428,67.979,120.479,67.979z M120.479,157.98c-20.678,0-37.5-16.822-37.5-37.5s16.822-37.5,37.5-37.5
	s37.5,16.822,37.5,37.5S141.157,157.98,120.479,157.98z M138.157,102.802c4.523,4.524,7.322,10.774,7.322,17.678
	c0,13.807-11.193,25-25,25s-25-11.193-25-25c0-6.903,2.799-13.153,7.322-17.678l17.678,17.678L138.157,102.802z"/>
<g>
</g>
<g>
</g>
<g>
</g>
<g>
</g>
<g>
</g>
<g>
</g>
<g>
</g>
<g>
</g>
<g>
</g>
<g>
</g>
<g>
</g>
<g>
</g>
<g>
</g>
<g>
</g>
<g>
</g>
</svg>
