<?xml version="1.0" encoding="UTF-8"?>
<svg width="14px" height="15px" viewBox="0 0 14 15" version="1.1" xmlns="http://www.w3.org/2000/svg" xmlns:xlink="http://www.w3.org/1999/xlink">
    <!-- Generator: Sketch 52.4 (67378) - http://www.bohemiancoding.com/sketch -->
    <title>sy_icon_search</title>
    <desc>Created with Sketch.</desc>
    <g id="Page-1" stroke="none" stroke-width="1" fill="none" fill-rule="evenodd">
        <g id="#主界面_玉米" transform="translate(-265.000000, -139.000000)" fill="#9B9B9B" fill-rule="nonzero">
            <g id="sy_icon_search" transform="translate(265.000000, 139.000000)">
                <path d="M13.9880993,13.4853784 L11.84286,11.340139 C12.9283813,10.1344985 13.5974896,8.54447666 13.5974896,6.79874479 C13.5974896,3.05013704 10.5473525,0 6.79874479,0 C3.05013704,0 0,3.05013704 0,6.79874479 C0,10.5473525 3.05013704,13.5974896 6.79874479,13.5974896 C8.41901887,13.5974896 9.90849652,13.0253664 11.0767666,12.0759801 L13.2380218,14.2363456 L13.9880993,13.4853784 Z M1.06149752,6.79785501 C1.06149752,3.63382721 3.63560675,1.06060775 6.79874479,1.06060775 C9.96188282,1.06060775 12.5359921,3.63382721 12.5359921,6.79785501 C12.5359921,9.96188282 9.96277259,12.5351023 6.79874479,12.5351023 C3.63471698,12.5351023 1.06149752,9.96277259 1.06149752,6.79785501 Z" id="形状"></path>
            </g>
        </g>
    </g>
</svg>