<?xml version="1.0" standalone="no"?><!DOCTYPE svg PUBLIC "-//W3C//DTD SVG 1.1//EN" "http://www.w3.org/Graphics/SVG/1.1/DTD/svg11.dtd"><svg t="1563444307570" class="icon" viewBox="0 0 1024 1024" version="1.1" xmlns="http://www.w3.org/2000/svg" p-id="4531" xmlns:xlink="http://www.w3.org/1999/xlink" width="200" height="200"><defs><style type="text/css"></style></defs><path d="M186.0352 378.7776c-73.7536 0-133.76 60.0064-133.76 133.76s60.0064 133.76 133.76 133.76 133.76-60.0064 133.76-133.76S259.7888 378.7776 186.0352 378.7776zM268.8768 512.5376c0 45.696-37.1712 82.8672-82.8416 82.8672S103.168 558.208 103.168 512.5376s37.1712-82.8416 82.8672-82.8416S268.8768 466.8416 268.8768 512.5376zM509.7472 378.7776c-73.7536 0-133.76 60.0064-133.76 133.76s60.0064 133.76 133.76 133.76 133.76-60.0064 133.76-133.76S583.5008 378.7776 509.7472 378.7776zM592.5888 512.5376c0 45.696-37.1712 82.8672-82.8672 82.8672s-82.8416-37.1712-82.8416-82.8672 37.1712-82.8416 82.8416-82.8416S592.5888 466.8416 592.5888 512.5376zM839.04 378.7776c-73.7536 0-133.76 60.0064-133.76 133.76s60.0064 133.76 133.76 133.76c73.7536 0 133.76-60.0064 133.76-133.76S912.7936 378.7776 839.04 378.7776zM921.8816 512.5376c0 45.696-37.1712 82.8672-82.8416 82.8672s-82.8672-37.1712-82.8672-82.8672 37.1712-82.8416 82.8672-82.8416S921.8816 466.8416 921.8816 512.5376z" p-id="4532"></path></svg>